<?xml version="1.0" encoding="UTF-8" standalone="no"?>
<svg xmlns="http://www.w3.org/2000/svg" data-name="Layer 2" id="Layer_2" viewBox="0 0 135 135">
  <defs>
    <style>
      .cls-1 {
        fill: none;
      }

      .cls-1, .cls-2, .cls-3, .cls-4, .cls-5, .cls-6, .cls-7, .cls-8, .cls-9, .cls-10 {
        stroke-width: 0px;
      }

      .cls-2 {
        opacity: .5;
      }

      .cls-2, .cls-6, .cls-7 {
        fill: #7d7d7d;
      }

      .cls-3 {
        fill: #5989a9;
      }

      .cls-4 {
        fill: #013d5b;
      }

      .cls-5 {
        fill: #10253f;
      }

      .cls-7 {
        opacity: .3;
      }

      .cls-8 {
        fill: #9b9b9b;
      }

      .cls-9 {
        fill: #f1ba0d;
      }

      .cls-10 {
        fill: #fff;
      }
    </style>
  </defs>
  <g data-name="Layer 1" id="Layer_1-2">
    <g>
      <rect class="cls-1" height="135" width="135"/>
      <g>
        <g>
          <path class="cls-9" d="M67.5,32.93c-.73,0-1.32-.59-1.32-1.32V14.44c0-.73.59-1.32,1.32-1.32s1.32.59,1.32,1.32v17.17c0,.73-.59,1.32-1.32,1.32Z"/>
          <path class="cls-9" d="M76.66,34.47c-.17,0-.34-.03-.51-.1-.67-.28-.99-1.05-.72-1.73l6.57-15.86c.28-.67,1.05-.99,1.73-.72.67.28.99,1.05.72,1.73l-6.57,15.86c-.21.51-.7.82-1.22.82Z"/>
          <path class="cls-9" d="M86.31,37.09c-.34,0-.68-.13-.93-.39-.52-.52-.52-1.35,0-1.87l12.14-12.14c.52-.52,1.35-.52,1.87,0,.52.52.52,1.35,0,1.87l-12.14,12.14c-.26.26-.6.39-.93.39Z"/>
          <path class="cls-9" d="M58.34,34.47c-.52,0-1.01-.31-1.22-.82l-6.57-15.86c-.28-.67.04-1.45.72-1.73.68-.27,1.45.04,1.73.72l6.57,15.86c.28.67-.04,1.45-.72,1.73-.16.07-.34.1-.51.1Z"/>
          <path class="cls-9" d="M48.69,37.09c-.34,0-.68-.13-.93-.39l-12.14-12.14c-.52-.52-.52-1.35,0-1.87.52-.52,1.35-.52,1.87,0l12.14,12.14c.52.52.52,1.35,0,1.87-.26.26-.6.39-.93.39Z"/>
        </g>
        <g>
          <g>
            <g>
              <g>
                <rect class="cls-6" height="21.8" rx=".34" ry=".34" width="8.57" x="72.13" y="94.11"/>
                <rect class="cls-6" height="21.8" rx=".34" ry=".34" width="8.57" x="124.2" y="94.11"/>
              </g>
              <g>
                <path class="cls-6" d="M78.91,85.74c-2.17.23-4.35.23-6.52,0-.49-.06-1.02-.5-1.01-.9.04-1.12.44-2.29,1.01-3.51.15-.32.53-.58.89-.61,1.88-.14,3.75-.12,5.63.08.42.05.89.39.99.75.31,1.14.31,2.28,0,3.42-.1.36-.57.71-.99.75Z"/>
                <path class="cls-6" d="M126.62,85.74c2.17.23,4.35.23,6.52,0,.49-.06,1.02-.5,1.01-.9-.04-1.12-.44-2.29-1.01-3.51-.15-.32-.53-.58-.89-.61-1.88-.14-3.75-.12-5.63.08-.42.05-.89.39-.99.75-.31,1.14-.31,2.28,0,3.42.1.36.57.71.99.75Z"/>
              </g>
              <path class="cls-6" d="M133.61,92.62c-.15-1.17-.97-.83-.97-2.1s-5.57-6.93-5.79-7.71c-.23-.78-3.19-8.72-4.07-9.87-.3-.39-.79-.6-1.12-.86-.58-.46-1.29-.74-2.03-.81-8.64-.81-16.88-.86-16.88-.86,0,0-8.37.05-17.08.88-.65.06-1.26.3-1.77.7-.31.24-.76.5-1.17.95-.9.99-3.84,9.09-4.07,9.87-.23.78-5.79,6.43-5.79,7.71s-.82.94-.97,2.1c-.11.89-1.25,12.74,1.53,15.62h6.82s-.03-.05.73-.11c.26.56.83,1.82,1.49,1.82h40.54c.67,0,1.24-1.26,1.49-1.82.76.06.73.11.73.11h6.82c2.78-2.88,1.65-14.73,1.53-15.62Z"/>
              <path class="cls-7" d="M102.76,83.09c3.69.24,19.28-.47,20.52-.78,1.26-.1,1.67-.67,1.37-1.61-.4-1.21-2.45-6.4-3.55-7.41-.97-.83-13.64-1.54-18.34-1.55-4.7.01-17.36.72-18.34,1.55-1.1,1.02-3.15,6.2-3.55,7.41-.3.94.11,1.51,1.37,1.61,1.24.31,16.83,1.02,20.52.78Z"/>
              <g>
                <g>
                  <path class="cls-6" d="M75.54,99.99c.16.45,8.14.43,10.62.2.74-.07-1.03-4.08-1.39-4.36-.92-.72-2.96-1.44-4.71-1.96-1.4-.42-2.74-.29-3.21-.22-.48.07-1.82,2.18-1.95,2.59s.43,3.13.65,3.75Z"/>
                  <path class="cls-6" d="M77.81,94.5c-.39-.15-.73-.27-.9-.27,0,0-.01,0-.02,0-.07.03-.36.27-.88,1.02-.38.54-.65,1.02-.73,1.19,0,.47.35,2.33.57,3.09.22.06.72.11,1.49.16l.48-5.19Z"/>
                </g>
                <ellipse class="cls-6" cx="80.4" cy="97.29" rx="2.28" ry="2.25"/>
              </g>
              <g>
                <path class="cls-6" d="M129.73,99.99c-.16.45-8.14.43-10.62.2-.74-.07,1.03-4.08,1.39-4.36.92-.72,2.96-1.44,4.71-1.96,1.4-.42,2.74-.29,3.21-.22s1.82,2.18,1.95,2.59-.43,3.13-.65,3.75Z"/>
                <ellipse class="cls-6" cx="124.87" cy="97.29" rx="2.28" ry="2.25"/>
              </g>
              <ellipse class="cls-6" cx="78.89" cy="104.74" rx="1.3" ry="1.27"/>
              <path class="cls-2" d="M80.9,107.07c-.77.19-3,.14-3,.14-2.27-1.98-3.87-5.52-3.87-5.52-.35.44-1.59,1.09-2.25,1.41.24,2.22.73,4.18,1.66,5.14h6.82s-.03-.05.73-.11c.04.08.08.15.12.22.02-.05.04-.11.05-.17l-.27-1.11Z"/>
              <path class="cls-6" d="M86.65,96.46c2.04.66,11.98.98,16.12.98s14.08-.33,16.12-.98l-1.63,4.35c-1.83.66-10.77.98-14.49.98s-12.65-.33-14.49-.98l-1.63-4.35Z"/>
            </g>
            <g>
              <circle class="cls-8" cx="126.42" cy="96.7" r="3.53"/>
              <circle class="cls-8" cx="120.3" cy="98.32" r="1.9"/>
            </g>
          </g>
          <g>
            <g>
              <g>
                <rect class="cls-6" height="21.8" rx=".34" ry=".34" transform="translate(118.55 210.01) rotate(-180)" width="8.57" x="54.99" y="94.11"/>
                <rect class="cls-6" height="21.8" rx=".34" ry=".34" transform="translate(14.41 210.01) rotate(-180)" width="8.57" x="2.92" y="94.11"/>
              </g>
              <g>
                <path class="cls-6" d="M56.79,85.74c2.17.23,4.35.23,6.52,0,.49-.06,1.02-.5,1.01-.9-.04-1.12-.44-2.29-1.01-3.51-.15-.32-.53-.58-.89-.61-1.88-.14-3.75-.12-5.63.08-.42.05-.89.39-.99.75-.31,1.14-.31,2.28,0,3.42.1.36.57.71.99.75Z"/>
                <path class="cls-6" d="M9.07,85.74c-2.17.23-4.35.23-6.52,0-.49-.06-1.02-.5-1.01-.9.04-1.12.44-2.29,1.01-3.51.15-.32.53-.58.89-.61,1.88-.14,3.75-.12,5.63.08.42.05.89.39.99.75.31,1.14.31,2.28,0,3.42-.1.36-.57.71-.99.75Z"/>
              </g>
              <path class="cls-6" d="M2.08,92.62c.15-1.17.97-.83.97-2.1,0-1.27,5.57-6.93,5.79-7.71.23-.78,3.19-8.72,4.07-9.87.3-.39.79-.6,1.12-.86.58-.46,1.29-.74,2.03-.81,8.64-.81,16.88-.86,16.88-.86,0,0,8.37.05,17.08.88.65.06,1.26.3,1.77.7.31.24.76.5,1.17.95.9.99,3.84,9.09,4.07,9.87.23.78,5.79,6.43,5.79,7.71,0,1.27.82.94.97,2.1.11.89,1.25,12.74-1.53,15.62h-6.82s.03-.05-.73-.11c-.26.56-.83,1.82-1.49,1.82H12.66c-.67,0-1.24-1.26-1.49-1.82-.76.06-.73.11-.73.11H3.61c-2.78-2.88-1.65-14.73-1.53-15.62Z"/>
              <path class="cls-7" d="M32.93,83.09c-3.69.24-19.28-.47-20.52-.78-1.26-.1-1.67-.67-1.37-1.61.4-1.21,2.45-6.4,3.55-7.41.97-.83,13.64-1.54,18.34-1.55,4.7.01,17.36.72,18.34,1.55,1.1,1.02,3.15,6.2,3.55,7.41.3.94-.11,1.51-1.37,1.61-1.24.31-16.83,1.02-20.52.78Z"/>
              <g>
                <g>
                  <path class="cls-6" d="M60.15,99.99c-.16.45-8.14.43-10.62.2-.74-.07,1.03-4.08,1.39-4.36.92-.72,2.96-1.44,4.71-1.96,1.4-.42,2.74-.29,3.21-.22.48.07,1.82,2.18,1.95,2.59s-.43,3.13-.65,3.75Z"/>
                  <path class="cls-6" d="M57.88,94.5c.39-.15.73-.27.9-.27,0,0,.01,0,.02,0,.07.03.36.27.88,1.02.38.54.65,1.02.73,1.19,0,.47-.35,2.33-.57,3.09-.22.06-.72.11-1.49.16l-.48-5.19Z"/>
                </g>
                <ellipse class="cls-6" cx="55.29" cy="97.29" rx="2.28" ry="2.25"/>
              </g>
              <g>
                <path class="cls-6" d="M5.96,99.99c.16.45,8.14.43,10.62.2.74-.07-1.03-4.08-1.39-4.36-.92-.72-2.96-1.44-4.71-1.96-1.4-.42-2.74-.29-3.21-.22-.48.07-1.82,2.18-1.95,2.59s.43,3.13.65,3.75Z"/>
                <path class="cls-6" d="M13.09,97.29c0,1.25-1.02,2.25-2.28,2.25-1.26,0-2.28-1.01-2.28-2.25s1.02-2.25,2.28-2.25,2.28,1.01,2.28,2.25Z"/>
              </g>
              <ellipse class="cls-6" cx="56.8" cy="104.74" rx="1.3" ry="1.27"/>
              <path class="cls-2" d="M54.79,107.07c.77.19,3,.14,3,.14,2.27-1.98,3.87-5.52,3.87-5.52.35.44,1.59,1.09,2.25,1.41-.24,2.22-.73,4.18-1.66,5.14h-6.82s.03-.05-.73-.11c-.04.08-.08.15-.12.22-.02-.05-.04-.11-.05-.17l.27-1.11Z"/>
              <path class="cls-6" d="M49.04,96.46c-2.04.66-11.98.98-16.12.98-4.14,0-14.08-.33-16.12-.98l1.63,4.35c1.83.66,10.77.98,14.49.98,3.72,0,12.65-.33,14.49-.98l1.63-4.35Z"/>
            </g>
            <g>
              <circle class="cls-8" cx="9.27" cy="96.7" r="3.53"/>
              <path class="cls-8" d="M17.29,98.32c0,1.05-.85,1.9-1.9,1.9-1.05,0-1.9-.85-1.9-1.9s.85-1.9,1.9-1.9c1.05,0,1.9.85,1.9,1.9Z"/>
            </g>
          </g>
          <path class="cls-6" d="M1.15,115.88h132.7c.64,0,1.15.52,1.15,1.15v4.87H0v-4.87c0-.64.52-1.15,1.15-1.15Z"/>
        </g>
        <g>
          <g>
            <path class="cls-4" d="M26.39,70.42l-11.77-1.61c-.88-.12-1.49-.98-1.33-1.9l.66-3.91c.13-.78.78-1.35,1.54-1.35h10.91v8.76Z"/>
            <path class="cls-4" d="M108.61,70.42l11.77-1.61c.88-.12,1.49-.98,1.33-1.9l-.66-3.91c-.13-.78-.78-1.35-1.54-1.35h-10.91s0,8.76,0,8.76Z"/>
          </g>
          <path class="cls-4" d="M94.76,110.93h-54.51c-.56,0-1.08-.32-1.36-.83l-2.66-4.88h62.56l-2.66,4.88c-.28.51-.8.83-1.36.83Z"/>
          <g>
            <rect class="cls-5" height="36.75" rx=".56" ry=".56" width="14.09" x="18.02" y="85.14"/>
            <rect class="cls-5" height="36.75" rx=".56" ry=".56" width="14.09" x="102.89" y="85.14"/>
          </g>
          <path class="cls-4" d="M117.56,77.23c-3.13-2.29-5.59-6.33-5.94-8.03s-6.17-19.84-8.96-20.32c-8.85-1.54-28.17-2.92-35.16-2.92s-26.3,1.38-35.16,2.92c-2.79.49-8.61,18.62-8.96,20.32-.35,1.7-2.81,5.74-5.94,8.03-1.16.85-2.25,22.73-.35,30.67.58,2.43.58,3.77,3.96,3.77s14.09.24,16.76-1.34c2.68-1.58,3.96-2.92,7.33-2.92s17,.36,22.35.36,18.98-.36,22.35-.36,4.66,1.34,7.33,2.92c2.68,1.58,13.39,1.34,16.76,1.34s3.38-1.34,3.96-3.77c1.9-7.94.81-29.82-.35-30.67Z"/>
          <path class="cls-10" d="M101.84,51.44c-15.99-1.76-28.99-2.19-34.34-2.19s-18.35.43-34.34,2.19c-1.05.12-6.05,14.62-5.7,15.19.35.58,33.53-.66,40.05-.66s39.7,1.24,40.05.66-4.66-15.08-5.7-15.19Z"/>
          <path class="cls-3" d="M91.87,96.24c-.04-3.92-1.42-8.67-2.16-10.81-.23-.68-.84-1.14-1.52-1.14-3.9-.09-13.27-.09-20.63-.01-7.36-.08-16.73-.08-20.63.01-.68,0-1.29.46-1.52,1.14-.74,2.13-2.12,6.88-2.16,10.79.05.54.09,1.07.14,1.61.72,1.43,3.9,3.47,4.98,3.93,1.23.29,14.97.2,19.19.44,4.23-.24,17.97-.15,19.19-.44,1.08-.46,4.25-2.49,4.98-3.92.05-.54.09-1.07.14-1.61Z"/>
          <g>
            <circle class="cls-10" cx="24.96" cy="87.24" r="4.6"/>
            <circle class="cls-10" cx="34.24" cy="88.53" r="3.32"/>
          </g>
          <g>
            <circle class="cls-10" cx="110.16" cy="87.24" r="4.6"/>
            <circle class="cls-10" cx="100.87" cy="88.53" r="3.32"/>
          </g>
        </g>
      </g>
    </g>
  </g>
</svg>
